#!OML:ASF G:\JayActor3\Patient Classification 1\Patient 1\Session 5\male.ASF
:FULLY-SPECIFIED
:DEGREES
534
root 32.9915 16.315 -5.25761 862.212 90.8749 864.98
lowerback 0.955003 -0.974447 -2.15308
upperback 2.81072 -1.22954 -1.08648
thorax 2.37033 -0.631619 0.0775537
lowerneck -11.3799 0.325163 2.97256
upperneck 16.5574 -0.0981793 0.643909
head 6.93845 0.248787 -0.285495
rclavicle 2.26118e-015 -7.95139e-016
rhumerus -36.1614 -9.6784 -85.5136
rradius 25.0478
rwrist 5.92808
rhand -17.0909 -5.12149
rfingers 7.12502
rthumb 9.14762 -34.9031
lclavicle 2.26118e-015 -7.95139e-016
lhumerus -16.2055 -4.65232 84.8532
lradius 34.1502
lwrist 14.662
lhand -18.7189 12.861
lfingers 7.12502
lthumb 7.57646 42.7053
rfemur -30.8612 6.55375 20.6954
rtibia 35.6494
rfoot -16.1054 -19.4464
rtoes 2.58862
lfemur 13.1764 10.4205 -22.6576
ltibia 9.52796
lfoot -16.0235 2.90726
ltoes -7.54421
535
root 33.125 16.3114 -5.25219 860.205 90.7368 862.839
lowerback 0.924818 -0.971259 -2.20174
upperback 2.77367 -1.22546 -1.08956
thorax 2.35012 -0.630517 0.101542
lowerneck -11.3609 0.289122 2.94756
upperneck 16.4356 -0.148501 0.674958
head 6.89527 0.22307 -0.276145
rclavicle 5.06901e-015 1.59028e-014
rhumerus -36.2518 -9.84524 -85.4646
rradius 24.8782
rwrist 6.10266
rhand -17.0645 -5.11388
rfingers 7.12502
rthumb 9.17315 -34.8944
lclavicle 5.06901e-015 1.59028e-014
lhumerus -15.9247 -4.79247 84.9366
lradius 34.3226
lwrist 14.8074
lhand -18.7597 12.7719
lfingers 7.12502
lthumb 7.53708 42.6176
rfemur -31.1463 6.56745 20.6165
rtibia 33.9761
rfoot -16.1861 -19.5461
rtoes 2.62424
lfemur 14.6777 10.4433 -22.6071
ltibia 7.4327
lfoot -15.3299 2.77089
ltoes -7.89419
536
root 33.259 16.3067 -5.24659 857.42 90.5919 859.926
lowerback 0.904017 -0.969868 -2.24792
upperback 2.7367 -1.22395 -1.0955
thorax 2.32464 -0.630513 0.121361
lowerneck -11.3419 0.253194 2.9233
upperneck 16.3094 -0.197414 0.698277
head 6.85071 0.197264 -0.269261
rclavicle 1.8487e-014 -1.11319e-014
rhumerus -36.3313 -10.0284 -85.4041
rradius 24.6891
rwrist 6.31447
rhand -17.0762 -5.07769
rfingers 7.12502
rthumb 9.16177 -34.8587
lclavicle 1.8487e-014 -1.11319e-014
lhumerus -15.6769 -4.8974 85.0285
lradius 34.4773
lwrist 14.9452
lhand -18.7991 12.7716
lfingers 7.12502
lthumb 7.49904 42.6187
rfemur -31.4085 6.57677 20.5252
rtibia 32.3742
rfoot -16.4266 -19.537
rtoes 2.52917
lfemur 16.5528 10.4593 -22.5628
ltibia 4.66375
lfoot -14.3032 2.63807
ltoes -8.26429
537
root 33.3938 16.3014 -5.24083 851.958 90.4465 854.346
lowerback 0.891912 -0.969205 -2.28147
upperback 2.70307 -1.22357 -1.10249
thorax 2.29741 -0.630741 0.133158
lowerneck -11.3187 0.217215 2.90226
upperneck 16.1719 -0.245444 0.7138
head 6.80183 0.171129 -0.265318
rclavicle 6.90777e-015 3.97569e-016
rhumerus -36.3999 -10.2354 -85.3295
rradius 24.4835
rwrist 6.56311
rhand -17.1152 -5.03015
rfingers 7.12502
rthumb 9.12414 -34.8128
lclavicle 6.90777e-015 3.97569e-016
lhumerus -15.4624 -4.97248 85.1309
lradius 34.6033
lwrist 15.0697
lhand -18.8382 12.7514
lfingers 7.12502
lthumb 7.46137 42.5998
rfemur -31.6484 6.57987 20.4306
rtibia 30.8631
rfoot -16.7386 -19.4469
rtoes 2.29057
lfemur 19.4703 10.4635 -22.5201
ltibia 3.49861e-014
lfoot -12.3864 2.51082
ltoes -8.64112
538
root 33.5299 16.2953 -5.23494 839.775 90.3035 842.065
lowerback 0.887085 -0.97191 -2.3064
upperback 2.67719 -1.22761 -1.11042
thorax 2.27396 -0.632969 0.139145
lowerneck -11.2942 0.183479 2.88461
upperneck 16.0276 -0.289901 0.723246
head 6.75065 0.146226 -0.26353
rclavicle -5.39203e-015 -6.36111e-015
rhumerus -36.4534 -10.4603 -85.2418
rradius 24.2594
rwrist 6.8439
rhand -17.1518 -4.99852
rfingers 7.12502
rthumb 9.08891 -34.7827
lclavicle -5.39203e-015 -6.36111e-015
lhumerus -15.2826 -5.01217 85.2426
lradius 34.7039
lwrist 15.1871
lhand -18.8626 12.73
lfingers 7.12502
lthumb 7.43778 42.5793
rfemur -31.8609 6.56567 20.332
rtibia 29.471
rfoot -17.0913 -19.2768
rtoes 1.99868
lfemur 19.8713 10.4612 -22.4626
ltibia -5.08889e-014
lfoot -12.5694 2.39915
ltoes -9.03783
539
root 33.6675 16.2883 -5.22894 805.882 90.1917 808.095
lowerback 0.889989 -0.980213 -2.32552
upperback 2.66056 -1.23895 -1.1199
thorax 2.25567 -0.638706 0.140246
lowerneck -11.2611 0.149872 2.86185
upperneck 15.872 -0.333206 0.734909
head 6.69443 0.121523 -0.260049
rclavicle 9.69075e-015 1.11319e-014
rhumerus -36.4966 -10.7031 -85.1389
rradius 24.0196
rwrist 7.16731
rhand -17.1837 -4.96992
rfingers 7.12502
rthumb 9.05804 -34.7554
lclavicle 9.69075e-015 1.11319e-014
lhumerus -15.1406 -5.01143 85.3634
lradius 34.7779
lwrist 15.2819
lhand -18.876 12.7042
lfingers 7.12502
lthumb 7.42484 42.5539
rfemur -32.0464 6.52862 20.2274
rtibia 28.22
rfoot -17.4559 -19.047
rtoes 1.67498
lfemur 20.3037 10.4415 -22.4009
ltibia -1.59028e-014
lfoot -12.7312 2.28293
ltoes -9.46728
